# xmcd
#
# Track frame offsets:
#	150
#	23571
#	36271
#	41318
#	48870
#	55662
#	62675
#	77394
#	89024
#	98467
#	108522
#	117602
#	124023
#	140790
#	154220
#	167584
#	175014
#	184644
#	198098
#
# Disc length: 2763 seconds
#
# Revision: 1
# Processed by: cddbd v1.5.1PL2 Copyright (c) Steve Scherf et al.
# Submitted via: audiograbber 1.83.01
#
DISCID=ee0ac913
DTITLE=Elena and Gigi Cringanu - Cantece de craciun
DYEAR=2002
DGENRE=Romanian
TTITLE0=Deschide usa crestine
TTITLE1=Doamne
TTITLE2=Moonlight
TTITLE3=De ziua lui Hristos
TTITLE4=Cantec de leagan
TTITLE5=Concert Etude
TTITLE6=Noapte de vis
TTITLE7=Iarna
TTITLE8=Romance
TTITLE9=Fulgusori de zapada
TTITLE10=E frumos de craciun
TTITLE11=Reverie
TTITLE12=Sa bata clopotele
TTITLE13=Noapte buna copii
TTITLE14=Moonrise
TTITLE15=O brad frumos
TTITLE16=Steaua a luminat
TTITLE17=Serenada melancolica
TTITLE18=Florile dalbe
EXTD=
EXTT0=
EXTT1=
EXTT2=
EXTT3=
EXTT4=
EXTT5=
EXTT6=
EXTT7=
EXTT8=
EXTT9=
EXTT10=
EXTT11=
EXTT12=
EXTT13=
EXTT14=
EXTT15=
EXTT16=
EXTT17=
EXTT18=
PLAYORDER=
